# xmcd CD database file generated by MAGIX-FreeDB-PlayR v2.0beta1
# 
# Track frame offsets:
#      150
#      15175
#      32775
#      50877
#      69862
#      86075
#      105460
#      121547
#      136220
#      157720
#      175937
#      194875
# 
# Disc length: 2816 seconds
# 
# Revision: 2 
# Processed by: cddbd v1.5.2PL0 Copyright (c) Steve Scherf et al.
# Submitted via: MAGIX-FreeDB-PlayR v2.0beta1
# 
DISCID=920afe0c
DTITLE=Lionel Richie - omng Home
DYEAR=1900
DGENRE=
TTITLE0=Lionel Richie - I Call It Love
TTITLE1=Lionel Richie - Sweet Vacation
TTITLE2=Lionel Richie - Why
TTITLE3=Lionel Richie - What You Are
TTITLE4=Lionel Richie - Up All Night
TTITLE5=Lionel Richie - I´m Coming Home
TTITLE6=Lionel Richie - All Around The World
TTITLE7=Lionel Richie - Out Of My Head
TTITLE8=Lionel Richie - Reason To Believe
TTITLE9=Lionel Richie - Stand Down
TTITLE10=Lionel Richie - I Love You
TTITLE11=Lionel Richie - Apologize
EXTD=
EXTT0=
EXTT1=
EXTT2=
EXTT3=
EXTT4=
EXTT5=
EXTT6=
EXTT7=
EXTT8=
EXTT9=
EXTT10=
EXTT11=
PLAYORDER=
